<svg width="32" height="25" viewBox="0 0 32 25" fill="none" xmlns="http://www.w3.org/2000/svg">
<path d="M10.1053 4.11671C8.91412 4.11671 7.77175 4.58989 6.92949 5.43216C6.08722 6.27443 5.61404 7.41679 5.61404 8.60794C5.61404 9.79908 6.08722 10.9414 6.92949 11.7837C7.77175 12.626 8.91412 13.0992 10.1053 13.0992C11.2964 13.0992 12.4388 12.626 13.281 11.7837C14.1233 10.9414 14.5965 9.79908 14.5965 8.60794C14.5965 7.41679 14.1233 6.27443 13.281 5.43216C12.4388 4.58989 11.2964 4.11671 10.1053 4.11671ZM3.36842 8.60794C3.36842 6.82121 4.07819 5.10767 5.3416 3.84427C6.605 2.58087 8.31854 1.87109 10.1053 1.87109C11.892 1.87109 13.6055 2.58087 14.8689 3.84427C16.1323 5.10767 16.8421 6.82121 16.8421 8.60794C16.8421 10.3947 16.1323 12.1082 14.8689 13.3716C13.6055 14.635 11.892 15.3448 10.1053 15.3448C8.31854 15.3448 6.605 14.635 5.3416 13.3716C4.07819 12.1082 3.36842 10.3947 3.36842 8.60794ZM5.61404 19.836C4.72067 19.836 3.8639 20.1909 3.2322 20.8226C2.6005 21.4543 2.24561 22.3111 2.24561 23.2044C2.24561 23.5022 2.12732 23.7878 1.91675 23.9984C1.70618 24.2089 1.42059 24.3272 1.12281 24.3272C0.82502 24.3272 0.53943 24.2089 0.328863 23.9984C0.118295 23.7878 0 23.5022 0 23.2044C0 21.7155 0.591477 20.2875 1.64431 19.2347C2.69715 18.1819 4.1251 17.5904 5.61404 17.5904H14.5965C16.0854 17.5904 17.5134 18.1819 18.5662 19.2347C19.619 20.2875 20.2105 21.7155 20.2105 23.2044C20.2105 23.5022 20.0922 23.7878 19.8817 23.9984C19.6711 24.2089 19.3855 24.3272 19.0877 24.3272C18.7899 24.3272 18.5043 24.2089 18.2938 23.9984C18.0832 23.7878 17.9649 23.5022 17.9649 23.2044C17.9649 22.3111 17.61 21.4543 16.9783 20.8226C16.3466 20.1909 15.4899 19.836 14.5965 19.836H5.61404Z" fill="#2F4A7D"/>
<path d="M24.4188 1.68421C23.5254 1.68421 22.6687 2.0391 22.037 2.6708C21.4053 3.3025 21.0504 4.15927 21.0504 5.05263C21.0504 5.94599 21.4053 6.80276 22.037 7.43446C22.6687 8.06617 23.5254 8.42105 24.4188 8.42105C25.3122 8.42105 26.1689 8.06617 26.8006 7.43446C27.4323 6.80276 27.7872 5.94599 27.7872 5.05263C27.7872 4.15927 27.4323 3.3025 26.8006 2.6708C26.1689 2.0391 25.3122 1.68421 24.4188 1.68421ZM19.3662 5.05263C19.3662 3.71259 19.8985 2.42743 20.846 1.47988C21.7936 0.532329 23.0788 0 24.4188 0C25.7588 0 27.044 0.532329 27.9915 1.47988C28.9391 2.42743 29.4714 3.71259 29.4714 5.05263C29.4714 6.39267 28.9391 7.67783 27.9915 8.62538C27.044 9.57293 25.7588 10.1053 24.4188 10.1053C23.0788 10.1053 21.7936 9.57293 20.846 8.62538C19.8985 7.67783 19.3662 6.39267 19.3662 5.05263ZM21.0504 13.4737C20.3803 13.4737 19.7378 13.7398 19.264 14.2136C18.7902 14.6874 18.5241 15.33 18.5241 16C18.5241 16.2233 18.4353 16.4375 18.2774 16.5955C18.1195 16.7534 17.9053 16.8421 17.6819 16.8421C17.4586 16.8421 17.2444 16.7534 17.0865 16.5955C16.9286 16.4375 16.8398 16.2233 16.8398 16C16.8398 14.8833 17.2835 13.8123 18.0731 13.0227C18.8627 12.2331 19.9337 11.7895 21.0504 11.7895H27.7872C28.9039 11.7895 29.9749 12.2331 30.7645 13.0227C31.5541 13.8123 31.9977 14.8833 31.9977 16C31.9977 16.2233 31.909 16.4375 31.7511 16.5955C31.5932 16.7534 31.379 16.8421 31.1556 16.8421C30.9323 16.8421 30.7181 16.7534 30.5602 16.5955C30.4022 16.4375 30.3135 16.2233 30.3135 16C30.3135 15.33 30.0474 14.6874 29.5736 14.2136C29.0998 13.7398 28.4572 13.4737 27.7872 13.4737H21.0504Z" fill="#2F4A7D"/>
</svg>
