<svg width="27" height="26" viewBox="0 0 27 26" fill="none" xmlns="http://www.w3.org/2000/svg">
<path fill-rule="evenodd" clip-rule="evenodd" d="M8.79302 21.7908L3.5 25L4.42741 19.377C2.22738 17.4303 1 14.7262 1 11.7368C1 5.80705 5.82938 1 13.5 1C21.1706 1 26 5.80705 26 11.7368C26 17.6666 21.1706 22.4737 13.5 22.4737C11.7808 22.4737 10.2044 22.2322 8.79302 21.7908Z" stroke="#2F4A7D" stroke-width="2" stroke-linecap="round" stroke-linejoin="round"/>
<path fill-rule="evenodd" clip-rule="evenodd" d="M7.95749 10.332C8.72455 10.332 9.34638 10.929 9.34638 11.6654C9.34638 12.3491 8.81021 12.9127 8.11946 12.9897L7.95749 12.9987C7.18433 12.9987 6.5625 12.4017 6.5625 11.6654C6.5625 10.9816 7.09867 10.418 7.78942 10.341L7.95749 10.332Z" fill="#2F4A7D"/>
<path fill-rule="evenodd" clip-rule="evenodd" d="M13.5044 10.332C14.2714 10.332 14.8933 10.929 14.8933 11.6654C14.8933 12.3491 14.3571 12.9127 13.6663 12.9897L13.5044 12.9987C12.7312 12.9987 12.1094 12.4017 12.1094 11.6654C12.1094 10.9816 12.6455 10.418 13.3363 10.341L13.5044 10.332Z" fill="#2F4A7D"/>
<path fill-rule="evenodd" clip-rule="evenodd" d="M19.0669 10.332C19.8339 10.332 20.4558 10.929 20.4558 11.6654C20.4558 12.3491 19.9196 12.9127 19.2288 12.9897L19.0669 12.9987C18.2937 12.9987 17.6719 12.4017 17.6719 11.6654C17.6719 10.9816 18.208 10.418 18.8988 10.341L19.0669 10.332Z" fill="#2F4A7D"/>
</svg>
