<svg width="29" height="29" viewBox="0 0 29 29" fill="none" xmlns="http://www.w3.org/2000/svg">
<path d="M13.348 12.4727H15.6583V13.5527H17.9685V15.7127H13.348L13.2441 15.7213C13.1109 15.7438 12.9904 15.8094 12.9036 15.9065C12.8169 16.0036 12.7693 16.1262 12.7693 16.2527C12.7693 16.3792 12.8169 16.5017 12.9036 16.5988C12.9904 16.6959 13.1109 16.7615 13.2441 16.784L13.348 16.7927H15.6583L15.8477 16.7981C16.5969 16.8424 17.2982 17.1578 17.803 17.6773C18.3077 18.1969 18.5762 18.8798 18.5516 19.5813C18.5269 20.2828 18.2111 20.9478 17.671 21.4352C17.1308 21.9227 16.409 22.1944 15.6583 22.1927V23.2727H13.348V22.1927H11.0377V20.0327H15.6583L15.7622 20.024C15.8954 20.0015 16.0159 19.9359 16.1026 19.8388C16.1893 19.7417 16.2369 19.6192 16.2369 19.4927C16.2369 19.3662 16.1893 19.2436 16.1026 19.1465C16.0159 19.0494 15.8954 18.9838 15.7622 18.9613L15.6583 18.9527H13.348L13.1586 18.9473C12.4093 18.9029 11.708 18.5875 11.2033 18.068C10.6986 17.5485 10.43 16.8656 10.4547 16.164C10.4793 15.4625 10.7952 14.7976 11.3352 14.3101C11.8754 13.8226 12.5973 13.5509 13.348 13.5527V12.4727Z" fill="#2F4A7D"/>
<path d="M24.1595 3.6594L24.0738 3.78469L21.3727 7.7333C22.9502 9.35861 24.5953 11.4023 25.8693 13.5639C27.1651 15.7625 28.0849 18.0964 28.1467 20.2431C28.2088 22.4005 27.4031 24.364 25.2656 25.7927C23.1392 27.214 19.7072 28.0978 14.5307 28.1478C9.35426 28.1979 5.9136 27.3803 3.77481 25.9976C1.62439 24.6073 0.803401 22.6541 0.852032 20.4875C0.900422 18.3316 1.80852 15.968 3.09936 13.7267C4.36949 11.5214 6.01775 9.42141 7.60929 7.73448L4.92592 3.78429L4.84034 3.6583L4.96762 3.57465C5.16415 3.44548 5.40861 3.29908 5.6952 3.14287L5.69522 3.14286C5.84013 3.06391 5.9959 2.98236 6.16198 2.89919L24.1595 3.6594ZM24.1595 3.6594L24.0332 3.5752M24.1595 3.6594L24.0332 3.5752M24.0332 3.5752C23.7394 3.37932 23.336 3.14355 22.8419 2.89387L24.0332 3.5752ZM4.52918 14.5502L4.3992 14.4754L4.52918 14.5502C5.68322 12.5464 7.18359 10.6135 8.6551 9.03155C12.2997 10.4485 16.6866 10.4478 20.3305 9.02964C21.7897 10.5535 23.2893 12.4361 24.4478 14.4017L24.577 14.3256L24.4478 14.4017C25.6797 16.4918 26.447 18.543 26.4974 20.2906C26.5211 21.1157 26.3879 21.8762 26.0498 22.5642C25.7119 23.2516 25.1651 23.8753 24.3487 24.421C22.6137 25.5806 19.563 26.4491 14.5148 26.4979C9.46491 26.5467 6.40995 25.7365 4.67064 24.612C3.85446 24.0843 3.30525 23.4737 2.96353 22.7937C2.62154 22.1132 2.48299 21.3544 2.50162 20.5245C2.54109 18.7659 3.29974 16.6849 4.52918 14.5502ZM9.72473 4.31461L9.69751 4.46212L9.72472 4.3146C9.12274 4.20354 8.52879 4.05815 7.95792 3.89128C9.64247 3.1888 12.0036 2.5 14.5292 2.5C16.1553 2.5 17.7068 2.78558 19.0511 3.17662C17.4911 3.42922 15.861 3.80588 14.3 4.2575C12.9357 4.65217 11.3307 4.61093 9.72473 4.31461ZM8.2001 5.66777C8.60109 5.76976 9.01079 5.86076 9.42534 5.93724C11.1687 6.25889 13.056 6.33503 14.7585 5.8425C17.0932 5.16707 19.5185 4.68585 21.5628 4.5329L19.4714 7.59025C16.3483 8.72877 12.6275 8.72827 9.50491 7.58868L8.2001 5.66777ZM14.5292 0.85C11.1113 0.85 8.00114 1.97798 6.162 2.89918L22.7505 2.848C22.7504 2.84799 22.7504 2.84797 22.7504 2.84796C20.919 1.93668 17.884 0.85 14.5292 0.85Z" fill="#2F4A7D" stroke="#2F4A7D" stroke-width="0.3"/>
</svg>
