<svg width="27" height="28" viewBox="0 0 27 28" fill="none" xmlns="http://www.w3.org/2000/svg">
<path d="M10.9714 26.9994V17.7744H16.0286V26.9994V27.1494H16.1786H26H26.15V26.9994V11.9301V11.8643L26.1016 11.8197L25.5249 11.2891L25.4233 11.3995L25.5249 11.2891L14.443 1.09377C14.0542 0.736125 13.5423 0.542572 13.0142 0.553569C12.4861 0.564567 11.9826 0.779264 11.6091 1.15278L1.41699 11.345L1.41698 11.345L0.89394 11.868L0.85 11.9119V11.974V26.9994V27.1494H1H10.8214H10.9714V26.9994ZM2.93571 12.7762L13.0616 2.72695L24.0643 12.7798V25.0637H18.1143V17.6244C18.1143 17.111 17.9103 16.6187 17.5473 16.2557C17.1843 15.8926 16.692 15.6887 16.1786 15.6887H10.8214C10.308 15.6887 9.81569 15.8926 9.45267 16.2557C9.08966 16.6187 8.88571 17.111 8.88571 17.6244V25.0637H2.93571V12.7762Z" fill="#2F4A7D" stroke="#2F4A7D" stroke-width="0.3"/>
</svg>
