<svg width="23" height="30" viewBox="0 0 23 30" fill="none" xmlns="http://www.w3.org/2000/svg">
<path d="M5.22656 17.4531H13.5902V19.544H5.22656V17.4531Z" fill="#2F4A7D"/>
<path d="M5.22656 12.2266H17.772V14.3175H5.22656V12.2266Z" fill="#2F4A7D"/>
<path d="M5.22656 22.6797H10.4538V24.7706H5.22656V22.6797Z" fill="#2F4A7D"/>
<path d="M20.9091 3.86293H17.7727V2.81747C17.7727 2.26293 17.5524 1.7311 17.1603 1.33898C16.7682 0.946854 16.2364 0.726563 15.6818 0.726562H7.31818C6.76364 0.726563 6.23181 0.946854 5.83969 1.33898C5.44756 1.7311 5.22727 2.26293 5.22727 2.81747V3.86293H2.09091C1.53637 3.86293 1.00453 4.08322 0.612413 4.47534C0.220291 4.86746 0 5.39929 0 5.95383V27.9084C0 28.4629 0.220291 28.9948 0.612413 29.3869C1.00453 29.779 1.53637 29.9993 2.09091 29.9993H20.9091C21.4636 29.9993 21.9955 29.779 22.3876 29.3869C22.7797 28.9948 23 28.4629 23 27.9084V5.95383C23 5.39929 22.7797 4.86746 22.3876 4.47534C21.9955 4.08322 21.4636 3.86293 20.9091 3.86293ZM7.31818 2.81747H15.6818V6.99929H7.31818V2.81747ZM20.9091 27.9084H2.09091V5.95383H5.22727V9.0902H17.7727V5.95383H20.9091V27.9084Z" fill="#2F4A7D"/>
</svg>
