<svg width="25" height="25" viewBox="0 0 25 25" fill="none" xmlns="http://www.w3.org/2000/svg">
<path d="M6.25 15H8.75C9.08152 15 9.39946 14.8683 9.63388 14.6339C9.8683 14.3995 10 14.0815 10 13.75C10 13.4185 9.8683 13.1005 9.63388 12.8661C9.39946 12.6317 9.08152 12.5 8.75 12.5H6.25C5.91848 12.5 5.60054 12.6317 5.36612 12.8661C5.1317 13.1005 5 13.4185 5 13.75C5 14.0815 5.1317 14.3995 5.36612 14.6339C5.60054 14.8683 5.91848 15 6.25 15ZM13.75 17.5H6.25C5.91848 17.5 5.60054 17.6317 5.36612 17.8661C5.1317 18.1005 5 18.4185 5 18.75C5 19.0815 5.1317 19.3995 5.36612 19.6339C5.60054 19.8683 5.91848 20 6.25 20H13.75C14.0815 20 14.3995 19.8683 14.6339 19.6339C14.8683 19.3995 15 19.0815 15 18.75C15 18.4185 14.8683 18.1005 14.6339 17.8661C14.3995 17.6317 14.0815 17.5 13.75 17.5ZM21.25 0H3.75C2.75544 0 1.80161 0.395088 1.09835 1.09835C0.395088 1.80161 0 2.75544 0 3.75V21.25C0 22.2446 0.395088 23.1984 1.09835 23.9017C1.80161 24.6049 2.75544 25 3.75 25H21.25C22.2446 25 23.1984 24.6049 23.9017 23.9017C24.6049 23.1984 25 22.2446 25 21.25V3.75C25 2.75544 24.6049 1.80161 23.9017 1.09835C23.1984 0.395088 22.2446 0 21.25 0ZM15 2.5V6.6125L13.1125 5.5625C12.9225 5.45279 12.7069 5.39503 12.4875 5.39503C12.2681 5.39503 12.0525 5.45279 11.8625 5.5625L10 6.6125V2.5H15ZM22.5 21.25C22.5 21.5815 22.3683 21.8995 22.1339 22.1339C21.8995 22.3683 21.5815 22.5 21.25 22.5H3.75C3.41848 22.5 3.10054 22.3683 2.86612 22.1339C2.6317 21.8995 2.5 21.5815 2.5 21.25V3.75C2.5 3.41848 2.6317 3.10054 2.86612 2.86612C3.10054 2.6317 3.41848 2.5 3.75 2.5H7.5V8.75C7.50132 8.96814 7.5597 9.18214 7.66934 9.37073C7.77899 9.55932 7.93608 9.71593 8.125 9.825C8.31502 9.93471 8.53058 9.99247 8.75 9.99247C8.96942 9.99247 9.18498 9.93471 9.375 9.825L12.5 8.0875L15.6375 9.8375C15.8243 9.94338 16.0353 9.99934 16.25 10C16.5815 10 16.8995 9.8683 17.1339 9.63388C17.3683 9.39946 17.5 9.08152 17.5 8.75V2.5H21.25C21.5815 2.5 21.8995 2.6317 22.1339 2.86612C22.3683 3.10054 22.5 3.41848 22.5 3.75V21.25Z" fill="#2F4A7D"/>
</svg>
