<svg width="23" height="25" viewBox="0 0 23 25" fill="none" xmlns="http://www.w3.org/2000/svg">
<path d="M11.5 2.5C10.1444 2.5 8.84442 3.02678 7.8859 3.96447C6.92738 4.90215 6.38889 6.17392 6.38889 7.5C6.38889 8.82608 6.92738 10.0979 7.8859 11.0355C8.84442 11.9732 10.1444 12.5 11.5 12.5C12.8556 12.5 14.1556 11.9732 15.1141 11.0355C16.0726 10.0979 16.6111 8.82608 16.6111 7.5C16.6111 6.17392 16.0726 4.90215 15.1141 3.96447C14.1556 3.02678 12.8556 2.5 11.5 2.5ZM3.83333 7.5C3.83333 5.51088 4.64107 3.60322 6.07885 2.1967C7.51663 0.790176 9.46667 0 11.5 0C13.5333 0 15.4834 0.790176 16.9212 2.1967C18.3589 3.60322 19.1667 5.51088 19.1667 7.5C19.1667 9.48912 18.3589 11.3968 16.9212 12.8033C15.4834 14.2098 13.5333 15 11.5 15C9.46667 15 7.51663 14.2098 6.07885 12.8033C4.64107 11.3968 3.83333 9.48912 3.83333 7.5ZM6.38889 20C5.37223 20 4.3972 20.3951 3.67831 21.0983C2.95942 21.8016 2.55556 22.7554 2.55556 23.75C2.55556 24.0815 2.42093 24.3995 2.1813 24.6339C1.94167 24.8683 1.61667 25 1.27778 25C0.93889 25 0.613882 24.8683 0.374252 24.6339C0.134623 24.3995 0 24.0815 0 23.75C0 22.0924 0.673113 20.5027 1.87126 19.3306C3.06941 18.1585 4.69445 17.5 6.38889 17.5H16.6111C18.3055 17.5 19.9306 18.1585 21.1287 19.3306C22.3269 20.5027 23 22.0924 23 23.75C23 24.0815 22.8654 24.3995 22.6257 24.6339C22.3861 24.8683 22.0611 25 21.7222 25C21.3833 25 21.0583 24.8683 20.8187 24.6339C20.5791 24.3995 20.4444 24.0815 20.4444 23.75C20.4444 22.7554 20.0406 21.8016 19.3217 21.0983C18.6028 20.3951 17.6278 20 16.6111 20H6.38889Z" fill="#2F4A7D"/>
</svg>
