<svg width="30" height="25" viewBox="0 0 30 25" fill="none" xmlns="http://www.w3.org/2000/svg">
<path d="M18.8096 2.5C17.4912 2.5 16.2268 3.02678 15.2946 3.96447C14.3624 4.90215 13.8386 6.17392 13.8386 7.5C13.8386 8.82608 14.3624 10.0979 15.2946 11.0355C16.2268 11.9732 17.4912 12.5 18.8096 12.5C20.1279 12.5 21.3923 11.9732 22.3245 11.0355C23.2568 10.0979 23.7805 8.82608 23.7805 7.5C23.7805 6.17392 23.2568 4.90215 22.3245 3.96447C21.3923 3.02678 20.1279 2.5 18.8096 2.5ZM11.3532 7.5C11.3532 5.51088 12.1388 3.60322 13.5371 2.1967C14.9354 0.790176 16.832 0 18.8096 0C20.7871 0 22.6837 0.790176 24.082 2.1967C25.4804 3.60322 26.2659 5.51088 26.2659 7.5C26.2659 9.48912 25.4804 11.3968 24.082 12.8033C22.6837 14.2098 20.7871 15 18.8096 15C16.832 15 14.9354 14.2098 13.5371 12.8033C12.1388 11.3968 11.3532 9.48912 11.3532 7.5ZM13.8386 20C12.8499 20 11.9016 20.3951 11.2024 21.0983C10.5032 21.8016 10.1105 22.7554 10.1105 23.75C10.1105 24.0815 9.97953 24.3995 9.74647 24.6339C9.51341 24.8683 9.19732 25 8.86773 25C8.53814 25 8.22204 24.8683 7.98899 24.6339C7.75593 24.3995 7.625 24.0815 7.625 23.75C7.625 22.0924 8.27965 20.5027 9.44493 19.3306C10.6102 18.1585 12.1907 17.5 13.8386 17.5H23.7805C25.4284 17.5 27.0089 18.1585 28.1742 19.3306C29.3395 20.5027 29.9941 22.0924 29.9941 23.75C29.9941 24.0815 29.8632 24.3995 29.6301 24.6339C29.3971 24.8683 29.081 25 28.7514 25C28.4218 25 28.1057 24.8683 27.8726 24.6339C27.6396 24.3995 27.5087 24.0815 27.5087 23.75C27.5087 22.7554 27.1159 21.8016 26.4167 21.0983C25.7175 20.3951 24.7693 20 23.7805 20H13.8386Z" fill="#2F4A7D"/>
<path d="M5.15175 7.67969C4.92403 7.67969 4.70563 7.77068 4.54461 7.93264C4.38358 8.09461 4.29312 8.31428 4.29312 8.54334V11.9979H0.858625C0.630903 11.9979 0.412509 12.0889 0.251485 12.2509C0.0904619 12.4129 0 12.6325 0 12.8616C0 13.0906 0.0904619 13.3103 0.251485 13.4723C0.412509 13.6342 0.630903 13.7252 0.858625 13.7252H4.29312V17.1798C4.29312 17.4089 4.38358 17.6285 4.54461 17.7905C4.70563 17.9525 4.92403 18.0435 5.15175 18.0435C5.37947 18.0435 5.59786 17.9525 5.75889 17.7905C5.91991 17.6285 6.01037 17.4089 6.01037 17.1798V13.7252H9.44487C9.67259 13.7252 9.89099 13.6342 10.052 13.4723C10.213 13.3103 10.3035 13.0906 10.3035 12.8616C10.3035 12.6325 10.213 12.4129 10.052 12.2509C9.89099 12.0889 9.67259 11.9979 9.44487 11.9979H6.01037V8.54334C6.01037 8.31428 5.91991 8.09461 5.75889 7.93264C5.59786 7.77068 5.37947 7.67969 5.15175 7.67969Z" fill="#2F4A7D"/>
</svg>
